<mxfile host="app.diagrams.net" modified="2022-11-22T04:42:28.479Z" agent="5.0 (X11; Linux x86_64) AppleWebKit/537.36 (KHTML, like Gecko) Chrome/107.0.0.0 Safari/537.36" etag="1H71r03aL8U4imCqzQ_y" version="20.5.3" type="github">
  <diagram id="gz-dD4WEyX2W9LxAjVXX" name="Page-1">
    <mxGraphModel dx="2380" dy="2181" grid="1" gridSize="10" guides="1" tooltips="1" connect="1" arrows="1" fold="1" page="1" pageScale="1" pageWidth="827" pageHeight="1169" math="0" shadow="0">
      <root>
        <mxCell id="0" />
        <mxCell id="1" parent="0" />
        <mxCell id="G7dTCTDDD5qDtTgaem02-5" style="edgeStyle=orthogonalEdgeStyle;rounded=0;orthogonalLoop=1;jettySize=auto;html=1;fontColor=#FF0000;" parent="1" source="G7dTCTDDD5qDtTgaem02-3" target="G7dTCTDDD5qDtTgaem02-4" edge="1">
          <mxGeometry relative="1" as="geometry" />
        </mxCell>
        <mxCell id="G7dTCTDDD5qDtTgaem02-8" style="edgeStyle=orthogonalEdgeStyle;rounded=0;orthogonalLoop=1;jettySize=auto;html=1;fontColor=#0000FF;" parent="1" source="G7dTCTDDD5qDtTgaem02-3" target="G7dTCTDDD5qDtTgaem02-7" edge="1">
          <mxGeometry relative="1" as="geometry" />
        </mxCell>
        <mxCell id="G7dTCTDDD5qDtTgaem02-83" style="edgeStyle=orthogonalEdgeStyle;rounded=0;orthogonalLoop=1;jettySize=auto;html=1;entryX=0.5;entryY=0;entryDx=0;entryDy=0;fontColor=#000000;" parent="1" source="G7dTCTDDD5qDtTgaem02-3" target="G7dTCTDDD5qDtTgaem02-82" edge="1">
          <mxGeometry relative="1" as="geometry" />
        </mxCell>
        <mxCell id="G7dTCTDDD5qDtTgaem02-85" value="override" style="edgeLabel;html=1;align=center;verticalAlign=middle;resizable=0;points=[];fontColor=#000000;" parent="G7dTCTDDD5qDtTgaem02-83" vertex="1" connectable="0">
          <mxGeometry x="0.2258" y="-2" relative="1" as="geometry">
            <mxPoint as="offset" />
          </mxGeometry>
        </mxCell>
        <mxCell id="G7dTCTDDD5qDtTgaem02-3" value="&lt;b&gt;&lt;font color=&quot;#ff0000&quot;&gt;Class&lt;/font&gt; &lt;u&gt;BaseScenario&lt;/u&gt;&lt;/b&gt;" style="rounded=1;whiteSpace=wrap;html=1;fillColor=#ffe6cc;strokeColor=#d79b00;" parent="1" vertex="1">
          <mxGeometry x="516" y="-120" width="120" height="60" as="geometry" />
        </mxCell>
        <mxCell id="G7dTCTDDD5qDtTgaem02-12" style="edgeStyle=orthogonalEdgeStyle;rounded=0;orthogonalLoop=1;jettySize=auto;html=1;fontColor=#0000FF;" parent="1" source="G7dTCTDDD5qDtTgaem02-4" target="G7dTCTDDD5qDtTgaem02-11" edge="1">
          <mxGeometry relative="1" as="geometry" />
        </mxCell>
        <mxCell id="G7dTCTDDD5qDtTgaem02-4" value="&lt;font style=&quot;font-weight: bold;&quot; color=&quot;#0000ff&quot;&gt;Function&lt;/font&gt;&lt;b style=&quot;&quot;&gt; make_world(self)&lt;br&gt;&lt;font color=&quot;#0000ff&quot;&gt;Return&lt;/font&gt;&lt;/b&gt;&amp;nbsp;&lt;br&gt;&lt;b style=&quot;color: rgb(0, 0, 0);&quot;&gt;world&lt;/b&gt;" style="rounded=1;whiteSpace=wrap;html=1;fillColor=#e1d5e7;strokeColor=#9673a6;" parent="1" vertex="1">
          <mxGeometry x="676" y="-180" width="150" height="80" as="geometry" />
        </mxCell>
        <mxCell id="G7dTCTDDD5qDtTgaem02-14" style="edgeStyle=orthogonalEdgeStyle;rounded=0;orthogonalLoop=1;jettySize=auto;html=1;entryX=0;entryY=0.5;entryDx=0;entryDy=0;fontColor=#000000;" parent="1" source="G7dTCTDDD5qDtTgaem02-7" target="G7dTCTDDD5qDtTgaem02-13" edge="1">
          <mxGeometry relative="1" as="geometry" />
        </mxCell>
        <mxCell id="G7dTCTDDD5qDtTgaem02-7" value="&lt;font style=&quot;font-weight: bold;&quot; color=&quot;#0000ff&quot;&gt;Function&lt;/font&gt;&lt;font style=&quot;&quot; color=&quot;#000000&quot;&gt;&lt;b&gt; reset_world(self, world, np_random)&lt;/b&gt;&lt;br&gt;&lt;/font&gt;" style="rounded=1;whiteSpace=wrap;html=1;fillColor=#e1d5e7;strokeColor=#9673a6;" parent="1" vertex="1">
          <mxGeometry x="676" y="-90" width="150" height="90" as="geometry" />
        </mxCell>
        <mxCell id="G7dTCTDDD5qDtTgaem02-101" style="edgeStyle=orthogonalEdgeStyle;rounded=0;orthogonalLoop=1;jettySize=auto;html=1;fontColor=#000000;" parent="1" source="G7dTCTDDD5qDtTgaem02-11" target="G7dTCTDDD5qDtTgaem02-22" edge="1">
          <mxGeometry relative="1" as="geometry">
            <Array as="points">
              <mxPoint x="1480" y="-140" />
              <mxPoint x="1480" y="690" />
              <mxPoint x="563" y="690" />
            </Array>
          </mxGeometry>
        </mxCell>
        <mxCell id="G7dTCTDDD5qDtTgaem02-11" value="&lt;div style=&quot;&quot;&gt;# create entities&amp;nbsp;&lt;span style=&quot;background-color: initial;&quot;&gt;of the world object. Define attributes for all entities such as name, dimension and motion&lt;/span&gt;&lt;/div&gt;" style="rounded=1;whiteSpace=wrap;html=1;" parent="1" vertex="1">
          <mxGeometry x="850" y="-180" width="150" height="80" as="geometry" />
        </mxCell>
        <mxCell id="G7dTCTDDD5qDtTgaem02-13" value="# create initial conditions of the world" style="rounded=1;whiteSpace=wrap;html=1;fontColor=#000000;" parent="1" vertex="1">
          <mxGeometry x="850" y="-75" width="120" height="60" as="geometry" />
        </mxCell>
        <mxCell id="G7dTCTDDD5qDtTgaem02-21" style="edgeStyle=orthogonalEdgeStyle;rounded=0;orthogonalLoop=1;jettySize=auto;html=1;fontColor=#0000FF;exitX=1;exitY=0.5;exitDx=0;exitDy=0;" parent="1" source="G7dTCTDDD5qDtTgaem02-17" target="G7dTCTDDD5qDtTgaem02-20" edge="1">
          <mxGeometry relative="1" as="geometry" />
        </mxCell>
        <mxCell id="G7dTCTDDD5qDtTgaem02-17" value="&lt;b style=&quot;color: rgb(0, 0, 0);&quot;&gt;&lt;font color=&quot;#ff0000&quot;&gt;Class&lt;/font&gt;&amp;nbsp;&lt;u&gt;Entity&lt;/u&gt;&lt;/b&gt;" style="rounded=1;whiteSpace=wrap;html=1;fillColor=#ffe6cc;strokeColor=#d79b00;" parent="1" vertex="1">
          <mxGeometry x="503" y="530" width="120" height="60" as="geometry" />
        </mxCell>
        <mxCell id="G7dTCTDDD5qDtTgaem02-66" style="edgeStyle=orthogonalEdgeStyle;rounded=0;orthogonalLoop=1;jettySize=auto;html=1;entryX=1;entryY=0.5;entryDx=0;entryDy=0;fontColor=#000000;" parent="1" source="G7dTCTDDD5qDtTgaem02-18" target="G7dTCTDDD5qDtTgaem02-27" edge="1">
          <mxGeometry relative="1" as="geometry">
            <Array as="points">
              <mxPoint x="1290" y="650" />
              <mxPoint x="1290" y="450" />
            </Array>
          </mxGeometry>
        </mxCell>
        <mxCell id="G7dTCTDDD5qDtTgaem02-18" value="&lt;b style=&quot;color: rgb(0, 0, 0);&quot;&gt;&lt;font color=&quot;#ff0000&quot;&gt;Class&lt;/font&gt;&amp;nbsp;&lt;/b&gt;&lt;font color=&quot;#000000&quot;&gt;&lt;u style=&quot;&quot;&gt;&lt;b&gt;Agent&lt;/b&gt;&lt;br&gt;dynamic entity&lt;br&gt;&lt;/u&gt;&lt;/font&gt;" style="rounded=1;whiteSpace=wrap;html=1;fillColor=#ffe6cc;strokeColor=#d79b00;" parent="1" vertex="1">
          <mxGeometry x="1070" y="620" width="120" height="60" as="geometry" />
        </mxCell>
        <mxCell id="G7dTCTDDD5qDtTgaem02-19" value="&lt;b style=&quot;color: rgb(0, 0, 0);&quot;&gt;&lt;font color=&quot;#ff0000&quot;&gt;Class&lt;/font&gt;&amp;nbsp;&lt;/b&gt;&lt;u style=&quot;&quot;&gt;&lt;span style=&quot;color: rgb(0, 0, 0);&quot;&gt;&lt;b&gt;Landmark&lt;/b&gt;&lt;br&gt;stable entity&lt;br&gt;&lt;/span&gt;&lt;/u&gt;" style="rounded=1;whiteSpace=wrap;html=1;fillColor=#ffe6cc;strokeColor=#d79b00;" parent="1" vertex="1">
          <mxGeometry x="1070" y="550" width="120" height="60" as="geometry" />
        </mxCell>
        <mxCell id="G7dTCTDDD5qDtTgaem02-64" style="edgeStyle=orthogonalEdgeStyle;rounded=0;orthogonalLoop=1;jettySize=auto;html=1;fontColor=#000000;" parent="1" source="G7dTCTDDD5qDtTgaem02-20" target="G7dTCTDDD5qDtTgaem02-19" edge="1">
          <mxGeometry relative="1" as="geometry" />
        </mxCell>
        <mxCell id="G7dTCTDDD5qDtTgaem02-78" value="override" style="edgeLabel;html=1;align=center;verticalAlign=middle;resizable=0;points=[];fontColor=#000000;" parent="G7dTCTDDD5qDtTgaem02-64" vertex="1" connectable="0">
          <mxGeometry x="0.4664" y="-2" relative="1" as="geometry">
            <mxPoint as="offset" />
          </mxGeometry>
        </mxCell>
        <mxCell id="G7dTCTDDD5qDtTgaem02-65" style="edgeStyle=orthogonalEdgeStyle;rounded=0;orthogonalLoop=1;jettySize=auto;html=1;entryX=0;entryY=0.5;entryDx=0;entryDy=0;fontColor=#000000;" parent="1" source="G7dTCTDDD5qDtTgaem02-20" target="G7dTCTDDD5qDtTgaem02-18" edge="1">
          <mxGeometry relative="1" as="geometry" />
        </mxCell>
        <mxCell id="G7dTCTDDD5qDtTgaem02-79" value="override" style="edgeLabel;html=1;align=center;verticalAlign=middle;resizable=0;points=[];fontColor=#000000;" parent="G7dTCTDDD5qDtTgaem02-65" vertex="1" connectable="0">
          <mxGeometry x="0.5842" relative="1" as="geometry">
            <mxPoint as="offset" />
          </mxGeometry>
        </mxCell>
        <mxCell id="G7dTCTDDD5qDtTgaem02-20" value="&lt;font style=&quot;&quot; color=&quot;#000000&quot;&gt;attributes: name, size, movable=False, collide, density, color, max_speed/accel, &lt;/font&gt;&lt;font color=&quot;#ff3399&quot;&gt;EntityState&lt;/font&gt;&lt;font style=&quot;&quot; color=&quot;#000000&quot;&gt;, mass...&lt;br&gt;&lt;/font&gt;" style="rounded=1;whiteSpace=wrap;html=1;fontColor=#0000FF;" parent="1" vertex="1">
          <mxGeometry x="673" y="510" width="170" height="100" as="geometry" />
        </mxCell>
        <mxCell id="G7dTCTDDD5qDtTgaem02-33" style="edgeStyle=orthogonalEdgeStyle;rounded=0;orthogonalLoop=1;jettySize=auto;html=1;entryX=0;entryY=0.5;entryDx=0;entryDy=0;fontColor=#0000FF;" parent="1" source="G7dTCTDDD5qDtTgaem02-22" target="G7dTCTDDD5qDtTgaem02-30" edge="1">
          <mxGeometry relative="1" as="geometry" />
        </mxCell>
        <mxCell id="G7dTCTDDD5qDtTgaem02-99" style="edgeStyle=orthogonalEdgeStyle;rounded=0;orthogonalLoop=1;jettySize=auto;html=1;fontColor=#000000;" parent="1" source="G7dTCTDDD5qDtTgaem02-22" target="G7dTCTDDD5qDtTgaem02-98" edge="1">
          <mxGeometry relative="1" as="geometry" />
        </mxCell>
        <mxCell id="G7dTCTDDD5qDtTgaem02-102" style="edgeStyle=orthogonalEdgeStyle;rounded=0;orthogonalLoop=1;jettySize=auto;html=1;entryX=0;entryY=0.5;entryDx=0;entryDy=0;fontColor=#000000;" parent="1" source="G7dTCTDDD5qDtTgaem02-22" target="G7dTCTDDD5qDtTgaem02-29" edge="1">
          <mxGeometry relative="1" as="geometry" />
        </mxCell>
        <mxCell id="G7dTCTDDD5qDtTgaem02-103" style="edgeStyle=orthogonalEdgeStyle;rounded=0;orthogonalLoop=1;jettySize=auto;html=1;entryX=0;entryY=0.5;entryDx=0;entryDy=0;fontColor=#000000;" parent="1" source="G7dTCTDDD5qDtTgaem02-22" target="G7dTCTDDD5qDtTgaem02-100" edge="1">
          <mxGeometry relative="1" as="geometry" />
        </mxCell>
        <mxCell id="G7dTCTDDD5qDtTgaem02-22" value="&lt;span style=&quot;color: rgb(0, 0, 0);&quot;&gt;&lt;font style=&quot;font-weight: bold;&quot; color=&quot;#ff0000&quot;&gt;Class&lt;/font&gt;&lt;b&gt;&amp;nbsp;&lt;/b&gt;&lt;u style=&quot;&quot;&gt;&lt;b&gt;World&lt;/b&gt;&lt;br&gt;consist of &lt;b&gt;Enities&lt;/b&gt;&lt;br&gt;&lt;/u&gt;&lt;/span&gt;" style="rounded=1;whiteSpace=wrap;html=1;fillColor=#ffe6cc;strokeColor=#d79b00;" parent="1" vertex="1">
          <mxGeometry x="503" y="725" width="120" height="60" as="geometry" />
        </mxCell>
        <mxCell id="G7dTCTDDD5qDtTgaem02-27" value="&lt;font style=&quot;&quot; color=&quot;#000000&quot;&gt;new added attributes: movable=True, send communication signals,observe the world, physical motor noise amount, communication noise amount, control range,&amp;nbsp;&lt;br&gt;&lt;/font&gt;&lt;font color=&quot;#ff3399&quot;&gt;AgentState&lt;/font&gt;&lt;font color=&quot;#ff3399&quot;&gt;, &lt;br&gt;&lt;/font&gt;&lt;span style=&quot;color: rgb(255, 51, 153);&quot;&gt;Action&lt;/span&gt;&lt;font style=&quot;&quot; color=&quot;#000000&quot;&gt;&lt;br&gt;&lt;/font&gt;" style="rounded=1;whiteSpace=wrap;html=1;fontColor=#0000FF;" parent="1" vertex="1">
          <mxGeometry x="910" y="400" width="360" height="100" as="geometry" />
        </mxCell>
        <mxCell id="G7dTCTDDD5qDtTgaem02-29" value="&lt;span style=&quot;color: rgb(0, 0, 255); font-weight: 700;&quot;&gt;Function&lt;/span&gt;&lt;font color=&quot;#00994d&quot;&gt;&lt;br&gt;&lt;b&gt;policy_agent(self)&lt;/b&gt;&lt;/font&gt;&lt;br&gt;&lt;font color=&quot;#000000&quot;&gt;[type of &lt;b&gt;agent&lt;/b&gt; that controlled by RL]&lt;/font&gt;&lt;br&gt;&lt;b style=&quot;&quot;&gt;&lt;font color=&quot;#0000ff&quot;&gt;Return&lt;/font&gt;&lt;font color=&quot;#000000&quot;&gt;&amp;nbsp;&lt;/font&gt;&lt;br&gt;&lt;font color=&quot;#000000&quot;&gt;Agents&lt;/font&gt;&lt;/b&gt;" style="rounded=1;whiteSpace=wrap;html=1;fillColor=#e1d5e7;strokeColor=#9673a6;" parent="1" vertex="1">
          <mxGeometry x="772.75" y="810" width="125.5" height="90" as="geometry" />
        </mxCell>
        <mxCell id="G7dTCTDDD5qDtTgaem02-30" value="&lt;span style=&quot;color: rgb(0, 0, 255); font-weight: 700;&quot;&gt;Function&lt;br&gt;&lt;/span&gt;&lt;font color=&quot;#00994d&quot;&gt;&lt;b&gt;scripted_agents(self)&lt;/b&gt;&lt;/font&gt;&lt;br&gt;&lt;span style=&quot;color: rgb(0, 0, 0);&quot;&gt;[type of &lt;b&gt;agent&lt;/b&gt; that controlled by RL]&lt;br&gt;&lt;/span&gt;&lt;b&gt;&lt;font color=&quot;#0000ff&quot;&gt;Return&lt;/font&gt;&lt;font color=&quot;#000000&quot;&gt;&amp;nbsp;&lt;/font&gt;&lt;br&gt;&lt;font color=&quot;#000000&quot;&gt;Agents&lt;/font&gt;&lt;/b&gt;&lt;font color=&quot;#000000&quot;&gt;&lt;br&gt;&lt;/font&gt;" style="rounded=1;whiteSpace=wrap;html=1;fillColor=#e1d5e7;strokeColor=#9673a6;" parent="1" vertex="1">
          <mxGeometry x="772.75" y="920" width="131" height="90" as="geometry" />
        </mxCell>
        <mxCell id="G7dTCTDDD5qDtTgaem02-49" value="&lt;font color=&quot;#000000&quot;&gt;MPE environment in PettingZoo&lt;/font&gt;" style="rounded=0;whiteSpace=wrap;html=1;fillColor=#f8cecc;strokeColor=#b85450;" parent="1" vertex="1">
          <mxGeometry x="-90" y="400" width="120" height="60" as="geometry" />
        </mxCell>
        <mxCell id="G7dTCTDDD5qDtTgaem02-53" style="edgeStyle=orthogonalEdgeStyle;rounded=0;orthogonalLoop=1;jettySize=auto;html=1;entryX=0;entryY=0.5;entryDx=0;entryDy=0;fontColor=#000000;" parent="1" source="G7dTCTDDD5qDtTgaem02-50" target="G7dTCTDDD5qDtTgaem02-17" edge="1">
          <mxGeometry relative="1" as="geometry" />
        </mxCell>
        <mxCell id="G7dTCTDDD5qDtTgaem02-54" style="edgeStyle=orthogonalEdgeStyle;rounded=0;orthogonalLoop=1;jettySize=auto;html=1;entryX=0;entryY=0.5;entryDx=0;entryDy=0;fontColor=#000000;" parent="1" source="G7dTCTDDD5qDtTgaem02-50" target="G7dTCTDDD5qDtTgaem02-22" edge="1">
          <mxGeometry relative="1" as="geometry" />
        </mxCell>
        <mxCell id="G7dTCTDDD5qDtTgaem02-60" style="edgeStyle=orthogonalEdgeStyle;rounded=0;orthogonalLoop=1;jettySize=auto;html=1;entryX=0;entryY=0.5;entryDx=0;entryDy=0;fontColor=#000000;exitX=1;exitY=0.5;exitDx=0;exitDy=0;" parent="1" source="G7dTCTDDD5qDtTgaem02-50" target="G7dTCTDDD5qDtTgaem02-59" edge="1">
          <mxGeometry relative="1" as="geometry">
            <Array as="points">
              <mxPoint x="450" y="595" />
              <mxPoint x="450" y="450" />
            </Array>
          </mxGeometry>
        </mxCell>
        <mxCell id="G7dTCTDDD5qDtTgaem02-62" style="edgeStyle=orthogonalEdgeStyle;rounded=0;orthogonalLoop=1;jettySize=auto;html=1;entryX=0;entryY=0.75;entryDx=0;entryDy=0;fontColor=#000000;" parent="1" source="G7dTCTDDD5qDtTgaem02-50" target="G7dTCTDDD5qDtTgaem02-56" edge="1">
          <mxGeometry relative="1" as="geometry">
            <Array as="points">
              <mxPoint x="430" y="595" />
              <mxPoint x="430" y="275" />
            </Array>
          </mxGeometry>
        </mxCell>
        <mxCell id="G7dTCTDDD5qDtTgaem02-63" style="edgeStyle=orthogonalEdgeStyle;rounded=0;orthogonalLoop=1;jettySize=auto;html=1;entryX=0;entryY=0.5;entryDx=0;entryDy=0;fontColor=#000000;" parent="1" source="G7dTCTDDD5qDtTgaem02-50" target="G7dTCTDDD5qDtTgaem02-55" edge="1">
          <mxGeometry relative="1" as="geometry">
            <Array as="points">
              <mxPoint x="440" y="595" />
              <mxPoint x="440" y="350" />
            </Array>
          </mxGeometry>
        </mxCell>
        <mxCell id="G7dTCTDDD5qDtTgaem02-50" value="Core.py" style="rounded=0;whiteSpace=wrap;html=1;fillColor=#dae8fc;strokeColor=#6c8ebf;" parent="1" vertex="1">
          <mxGeometry x="300" y="565" width="120" height="60" as="geometry" />
        </mxCell>
        <mxCell id="G7dTCTDDD5qDtTgaem02-52" style="edgeStyle=orthogonalEdgeStyle;rounded=0;orthogonalLoop=1;jettySize=auto;html=1;entryX=0;entryY=0.5;entryDx=0;entryDy=0;fontColor=#000000;" parent="1" source="G7dTCTDDD5qDtTgaem02-51" target="G7dTCTDDD5qDtTgaem02-3" edge="1">
          <mxGeometry relative="1" as="geometry" />
        </mxCell>
        <mxCell id="G7dTCTDDD5qDtTgaem02-51" value="Scenario.py" style="rounded=0;whiteSpace=wrap;html=1;fillColor=#dae8fc;strokeColor=#6c8ebf;" parent="1" vertex="1">
          <mxGeometry x="360" y="-120" width="120" height="60" as="geometry" />
        </mxCell>
        <mxCell id="G7dTCTDDD5qDtTgaem02-57" style="edgeStyle=orthogonalEdgeStyle;rounded=0;orthogonalLoop=1;jettySize=auto;html=1;fontColor=#000000;" parent="1" source="G7dTCTDDD5qDtTgaem02-55" target="G7dTCTDDD5qDtTgaem02-27" edge="1">
          <mxGeometry relative="1" as="geometry" />
        </mxCell>
        <mxCell id="G7dTCTDDD5qDtTgaem02-55" value="&lt;b style=&quot;color: rgb(0, 0, 0);&quot;&gt;&lt;font color=&quot;#ff0000&quot;&gt;Class&lt;/font&gt;&amp;nbsp;&lt;/b&gt;&lt;font color=&quot;#000000&quot;&gt;&lt;u style=&quot;&quot;&gt;&lt;b&gt;AgentState (&lt;/b&gt;&lt;/u&gt;&lt;/font&gt;&lt;u&gt;&lt;b&gt;EntityState&lt;/b&gt;&lt;/u&gt;&lt;font color=&quot;#000000&quot;&gt;&lt;u style=&quot;&quot;&gt;&lt;b&gt;)&lt;/b&gt;&lt;br&gt;[position &amp;amp; velocity, communication] - (state.p_pos/p_vel/c)&lt;br&gt;&lt;/u&gt;&lt;/font&gt;" style="rounded=1;whiteSpace=wrap;html=1;fillColor=#ffe6cc;strokeColor=#d79b00;" parent="1" vertex="1">
          <mxGeometry x="649" y="305" width="160" height="90" as="geometry" />
        </mxCell>
        <mxCell id="G7dTCTDDD5qDtTgaem02-58" style="edgeStyle=orthogonalEdgeStyle;rounded=0;orthogonalLoop=1;jettySize=auto;html=1;fontColor=#000000;entryX=1;entryY=0.25;entryDx=0;entryDy=0;" parent="1" source="G7dTCTDDD5qDtTgaem02-56" target="G7dTCTDDD5qDtTgaem02-20" edge="1">
          <mxGeometry relative="1" as="geometry">
            <Array as="points">
              <mxPoint x="870" y="260" />
              <mxPoint x="870" y="535" />
            </Array>
          </mxGeometry>
        </mxCell>
        <mxCell id="G7dTCTDDD5qDtTgaem02-56" value="&lt;b style=&quot;color: rgb(0, 0, 0);&quot;&gt;&lt;font color=&quot;#ff0000&quot;&gt;Class&lt;/font&gt;&amp;nbsp;&lt;/b&gt;&lt;font color=&quot;#000000&quot;&gt;&lt;u style=&quot;&quot;&gt;&lt;b&gt;EntityState&lt;/b&gt;&lt;br&gt;[position &amp;amp; velocity] -&amp;nbsp;&lt;/u&gt;&lt;/font&gt;&lt;u&gt;state.p_pos/p_vel&lt;/u&gt;&lt;font color=&quot;#000000&quot;&gt;&lt;u style=&quot;&quot;&gt;&lt;br&gt;&lt;/u&gt;&lt;/font&gt;" style="rounded=1;whiteSpace=wrap;html=1;fillColor=#ffe6cc;strokeColor=#d79b00;" parent="1" vertex="1">
          <mxGeometry x="669" y="230" width="120" height="60" as="geometry" />
        </mxCell>
        <mxCell id="G7dTCTDDD5qDtTgaem02-61" style="edgeStyle=orthogonalEdgeStyle;rounded=0;orthogonalLoop=1;jettySize=auto;html=1;fontColor=#000000;" parent="1" source="G7dTCTDDD5qDtTgaem02-59" target="G7dTCTDDD5qDtTgaem02-27" edge="1">
          <mxGeometry relative="1" as="geometry" />
        </mxCell>
        <mxCell id="G7dTCTDDD5qDtTgaem02-59" value="&lt;b style=&quot;color: rgb(0, 0, 0);&quot;&gt;&lt;font color=&quot;#ff0000&quot;&gt;Class&lt;/font&gt;&amp;nbsp;&lt;/b&gt;&lt;b&gt;&lt;u&gt;&lt;span style=&quot;background-color: initial;&quot;&gt;Action&lt;/span&gt;&lt;br&gt;&lt;/u&gt;&lt;/b&gt;&lt;font color=&quot;#000000&quot;&gt;&lt;u style=&quot;&quot;&gt;[physical &amp;amp; communication] - (action.c/u)&lt;br&gt;&lt;/u&gt;&lt;/font&gt;" style="rounded=1;whiteSpace=wrap;html=1;fillColor=#ffe6cc;strokeColor=#d79b00;" parent="1" vertex="1">
          <mxGeometry x="669" y="420" width="120" height="60" as="geometry" />
        </mxCell>
        <mxCell id="G7dTCTDDD5qDtTgaem02-74" style="edgeStyle=orthogonalEdgeStyle;rounded=0;orthogonalLoop=1;jettySize=auto;html=1;entryX=0.5;entryY=0;entryDx=0;entryDy=0;fontColor=#000000;" parent="1" source="G7dTCTDDD5qDtTgaem02-67" target="G7dTCTDDD5qDtTgaem02-72" edge="1">
          <mxGeometry relative="1" as="geometry">
            <Array as="points">
              <mxPoint x="566" y="1750" />
              <mxPoint x="560" y="1750" />
              <mxPoint x="560" y="2000" />
            </Array>
          </mxGeometry>
        </mxCell>
        <mxCell id="G7dTCTDDD5qDtTgaem02-80" value="override" style="edgeLabel;html=1;align=center;verticalAlign=middle;resizable=0;points=[];fontColor=#000000;" parent="G7dTCTDDD5qDtTgaem02-74" vertex="1" connectable="0">
          <mxGeometry x="0.195" y="1" relative="1" as="geometry">
            <mxPoint as="offset" />
          </mxGeometry>
        </mxCell>
        <mxCell id="G7dTCTDDD5qDtTgaem02-67" value="&lt;b style=&quot;color: rgb(0, 0, 0);&quot;&gt;&lt;font color=&quot;#ff0000&quot;&gt;Class&lt;/font&gt;&amp;nbsp;&lt;/b&gt;&lt;u style=&quot;&quot;&gt;&lt;b&gt;AECEnv&lt;/b&gt;&lt;br&gt;steps agents one at a time.&lt;br&gt;&lt;/u&gt;" style="rounded=1;whiteSpace=wrap;html=1;fillColor=#ffe6cc;strokeColor=#d79b00;" parent="1" vertex="1">
          <mxGeometry x="506" y="1440" width="120" height="60" as="geometry" />
        </mxCell>
        <mxCell id="G7dTCTDDD5qDtTgaem02-73" style="edgeStyle=orthogonalEdgeStyle;rounded=0;orthogonalLoop=1;jettySize=auto;html=1;fontColor=#000000;" parent="1" source="G7dTCTDDD5qDtTgaem02-69" target="G7dTCTDDD5qDtTgaem02-72" edge="1">
          <mxGeometry relative="1" as="geometry">
            <Array as="points">
              <mxPoint x="370" y="1570" />
            </Array>
          </mxGeometry>
        </mxCell>
        <mxCell id="G7dTCTDDD5qDtTgaem02-77" style="edgeStyle=orthogonalEdgeStyle;rounded=0;orthogonalLoop=1;jettySize=auto;html=1;entryX=0;entryY=0.5;entryDx=0;entryDy=0;fontColor=#000000;" parent="1" source="G7dTCTDDD5qDtTgaem02-69" target="G7dTCTDDD5qDtTgaem02-76" edge="1">
          <mxGeometry relative="1" as="geometry" />
        </mxCell>
        <mxCell id="G7dTCTDDD5qDtTgaem02-69" value="simple_env.py" style="rounded=0;whiteSpace=wrap;html=1;fillColor=#dae8fc;strokeColor=#6c8ebf;" parent="1" vertex="1">
          <mxGeometry x="310" y="1460" width="120" height="60" as="geometry" />
        </mxCell>
        <mxCell id="G7dTCTDDD5qDtTgaem02-89" style="edgeStyle=orthogonalEdgeStyle;rounded=0;orthogonalLoop=1;jettySize=auto;html=1;fontColor=#000000;" parent="1" source="G7dTCTDDD5qDtTgaem02-72" target="G7dTCTDDD5qDtTgaem02-87" edge="1">
          <mxGeometry relative="1" as="geometry" />
        </mxCell>
        <mxCell id="G7dTCTDDD5qDtTgaem02-90" value="override" style="edgeLabel;html=1;align=center;verticalAlign=middle;resizable=0;points=[];fontColor=#000000;" parent="G7dTCTDDD5qDtTgaem02-89" vertex="1" connectable="0">
          <mxGeometry x="-0.1239" y="-3" relative="1" as="geometry">
            <mxPoint as="offset" />
          </mxGeometry>
        </mxCell>
        <mxCell id="G7dTCTDDD5qDtTgaem02-95" style="edgeStyle=orthogonalEdgeStyle;rounded=0;orthogonalLoop=1;jettySize=auto;html=1;entryX=0;entryY=0.5;entryDx=0;entryDy=0;fontColor=#000000;" parent="1" source="G7dTCTDDD5qDtTgaem02-72" target="G7dTCTDDD5qDtTgaem02-92" edge="1">
          <mxGeometry relative="1" as="geometry" />
        </mxCell>
        <mxCell id="G7dTCTDDD5qDtTgaem02-96" style="edgeStyle=orthogonalEdgeStyle;rounded=0;orthogonalLoop=1;jettySize=auto;html=1;entryX=0;entryY=0.5;entryDx=0;entryDy=0;fontColor=#000000;" parent="1" source="G7dTCTDDD5qDtTgaem02-72" target="G7dTCTDDD5qDtTgaem02-93" edge="1">
          <mxGeometry relative="1" as="geometry" />
        </mxCell>
        <mxCell id="G7dTCTDDD5qDtTgaem02-97" style="edgeStyle=orthogonalEdgeStyle;rounded=0;orthogonalLoop=1;jettySize=auto;html=1;entryX=0;entryY=0.5;entryDx=0;entryDy=0;fontColor=#000000;" parent="1" source="G7dTCTDDD5qDtTgaem02-72" target="G7dTCTDDD5qDtTgaem02-94" edge="1">
          <mxGeometry relative="1" as="geometry" />
        </mxCell>
        <mxCell id="G7dTCTDDD5qDtTgaem02-72" value="&lt;b style=&quot;&quot;&gt;&lt;font color=&quot;#ff0000&quot;&gt;Class &lt;/font&gt;SimpleEnv(AECEnv)&lt;/b&gt;" style="rounded=1;whiteSpace=wrap;html=1;fillColor=#ffe6cc;strokeColor=#d79b00;" parent="1" vertex="1">
          <mxGeometry x="443" y="2000" width="120" height="60" as="geometry" />
        </mxCell>
        <mxCell id="G7dTCTDDD5qDtTgaem02-76" value="&lt;font style=&quot;font-weight: bold;&quot; color=&quot;#0000ff&quot;&gt;Function&lt;/font&gt;&lt;b style=&quot;&quot;&gt; make_env(raw_env)&lt;br&gt;&lt;font color=&quot;#0000ff&quot;&gt;Return&lt;/font&gt;&lt;/b&gt;&amp;nbsp;&lt;br&gt;&lt;b style=&quot;color: rgb(0, 0, 0);&quot;&gt;env&lt;/b&gt;" style="rounded=1;whiteSpace=wrap;html=1;fillColor=#e1d5e7;strokeColor=#9673a6;" parent="1" vertex="1">
          <mxGeometry x="482" y="1330" width="150" height="80" as="geometry" />
        </mxCell>
        <mxCell id="G7dTCTDDD5qDtTgaem02-84" style="edgeStyle=orthogonalEdgeStyle;rounded=0;orthogonalLoop=1;jettySize=auto;html=1;fontColor=#000000;" parent="1" source="G7dTCTDDD5qDtTgaem02-81" target="G7dTCTDDD5qDtTgaem02-82" edge="1">
          <mxGeometry relative="1" as="geometry" />
        </mxCell>
        <mxCell id="G7dTCTDDD5qDtTgaem02-81" value="simple_spread.py" style="rounded=0;whiteSpace=wrap;html=1;fillColor=#dae8fc;strokeColor=#6c8ebf;" parent="1" vertex="1">
          <mxGeometry x="330" y="90" width="120" height="60" as="geometry" />
        </mxCell>
        <mxCell id="G7dTCTDDD5qDtTgaem02-82" value="&lt;font style=&quot;font-weight: bold;&quot; color=&quot;#ff0000&quot;&gt;Class&amp;nbsp;&lt;/font&gt;&lt;span style=&quot;font-size: 12px;&quot;&gt;&lt;b&gt;Scenario&amp;nbsp;&lt;/b&gt;&lt;/span&gt;&lt;u style=&quot;font-weight: bold;&quot;&gt;(BaseScenario)&lt;/u&gt;" style="rounded=1;whiteSpace=wrap;html=1;fillColor=#ffe6cc;strokeColor=#d79b00;" parent="1" vertex="1">
          <mxGeometry x="472" y="90" width="208" height="60" as="geometry" />
        </mxCell>
        <mxCell id="G7dTCTDDD5qDtTgaem02-91" style="edgeStyle=orthogonalEdgeStyle;rounded=0;orthogonalLoop=1;jettySize=auto;html=1;fontColor=#000000;" parent="1" source="G7dTCTDDD5qDtTgaem02-86" target="G7dTCTDDD5qDtTgaem02-87" edge="1">
          <mxGeometry relative="1" as="geometry" />
        </mxCell>
        <mxCell id="G7dTCTDDD5qDtTgaem02-86" value="simple_spread_v2.py" style="rounded=0;whiteSpace=wrap;html=1;fillColor=#dae8fc;strokeColor=#6c8ebf;" parent="1" vertex="1">
          <mxGeometry x="250" y="2110" width="120" height="60" as="geometry" />
        </mxCell>
        <mxCell id="G7dTCTDDD5qDtTgaem02-87" value="&lt;font style=&quot;font-weight: bold;&quot; color=&quot;#ff0000&quot;&gt;Class&amp;nbsp;&lt;br&gt;&lt;/font&gt;&lt;span style=&quot;font-size: 12px;&quot;&gt;&lt;b&gt;raw_env&lt;/b&gt;&lt;/span&gt;&lt;b&gt;(&lt;/b&gt;&lt;span style=&quot;font-size: 12px;&quot;&gt;&lt;b&gt;SimpleEnv&lt;/b&gt;&lt;/span&gt;&lt;b&gt;)&lt;/b&gt;" style="rounded=1;whiteSpace=wrap;html=1;fillColor=#ffe6cc;strokeColor=#d79b00;" parent="1" vertex="1">
          <mxGeometry x="442" y="2110" width="128" height="60" as="geometry" />
        </mxCell>
        <mxCell id="G7dTCTDDD5qDtTgaem02-92" value="&lt;font style=&quot;font-weight: bold;&quot; color=&quot;#0000ff&quot;&gt;Function&lt;/font&gt;&lt;b&gt;&amp;nbsp;&lt;br&gt;&lt;/b&gt;&lt;span style=&quot;font-size: 12px;&quot;&gt;&lt;b&gt;_execute_world_step(self)&lt;/b&gt;&lt;/span&gt;" style="rounded=1;whiteSpace=wrap;html=1;fillColor=#e1d5e7;strokeColor=#9673a6;" parent="1" vertex="1">
          <mxGeometry x="677" y="1970" width="150" height="80" as="geometry" />
        </mxCell>
        <mxCell id="G7dTCTDDD5qDtTgaem02-93" value="&lt;font style=&quot;font-weight: bold;&quot; color=&quot;#0000ff&quot;&gt;Function&lt;/font&gt;&lt;b&gt;&amp;nbsp;&lt;br&gt;&lt;/b&gt;&lt;span style=&quot;font-size: 12px;&quot;&gt;&lt;b&gt;_set_action(self, action, agent, action_space, time=None)&lt;/b&gt;&lt;/span&gt;" style="rounded=1;whiteSpace=wrap;html=1;fillColor=#e1d5e7;strokeColor=#9673a6;" parent="1" vertex="1">
          <mxGeometry x="677" y="2060" width="150" height="80" as="geometry" />
        </mxCell>
        <mxCell id="G7dTCTDDD5qDtTgaem02-94" value="&lt;font style=&quot;font-weight: bold;&quot; color=&quot;#0000ff&quot;&gt;Function&lt;/font&gt;&lt;b&gt;&amp;nbsp;&lt;br&gt;&lt;/b&gt;&lt;span style=&quot;font-size: 12px;&quot;&gt;&lt;b&gt;_execute_world_step(self)&lt;/b&gt;&lt;/span&gt;" style="rounded=1;whiteSpace=wrap;html=1;fillColor=#e1d5e7;strokeColor=#9673a6;" parent="1" vertex="1">
          <mxGeometry x="677" y="2160" width="150" height="80" as="geometry" />
        </mxCell>
        <mxCell id="G7dTCTDDD5qDtTgaem02-98" value="&lt;span style=&quot;color: rgb(0, 0, 255); font-weight: 700;&quot;&gt;Function&lt;/span&gt;&lt;font color=&quot;#00994d&quot;&gt;&lt;br&gt;&lt;span style=&quot;font-size: 12px;&quot;&gt;&lt;b&gt;entities&lt;/b&gt;&lt;/span&gt;&lt;b&gt;(self)&lt;/b&gt;&lt;/font&gt;&lt;br&gt;&lt;font style=&quot;font-weight: bold;&quot; color=&quot;#0000ff&quot;&gt;Return&lt;/font&gt;&lt;font style=&quot;font-weight: bold;&quot; color=&quot;#000000&quot;&gt;&amp;nbsp;&lt;/font&gt;&lt;br&gt;&lt;span style=&quot;font-size: 12px;&quot;&gt;&lt;b&gt;all entities in the world&lt;/b&gt;&lt;/span&gt;" style="rounded=1;whiteSpace=wrap;html=1;fillColor=#e1d5e7;strokeColor=#9673a6;" parent="1" vertex="1">
          <mxGeometry x="770" y="710" width="125.5" height="90" as="geometry" />
        </mxCell>
        <mxCell id="G7dTCTDDD5qDtTgaem02-100" value="&lt;span style=&quot;color: rgb(0, 0, 255); font-weight: 700;&quot;&gt;Function&lt;br&gt;&lt;/span&gt;&lt;font color=&quot;#00994d&quot;&gt;&lt;span style=&quot;font-size: 12px;&quot;&gt;&lt;b&gt;step&lt;/b&gt;&lt;/span&gt;&lt;b&gt;(self)&lt;/b&gt;&lt;/font&gt;&lt;br&gt;&lt;span style=&quot;color: rgb(0, 0, 0);&quot;&gt;[update agents&#39; state based on their action]&lt;/span&gt;&lt;font color=&quot;#000000&quot;&gt;&lt;br&gt;&lt;/font&gt;" style="rounded=1;whiteSpace=wrap;html=1;fillColor=#e1d5e7;strokeColor=#9673a6;" parent="1" vertex="1">
          <mxGeometry x="770" y="1040" width="131" height="90" as="geometry" />
        </mxCell>
        <mxCell id="G7dTCTDDD5qDtTgaem02-108" value="" style="edgeStyle=orthogonalEdgeStyle;rounded=0;orthogonalLoop=1;jettySize=auto;html=1;fontColor=#000000;" parent="1" source="G7dTCTDDD5qDtTgaem02-104" target="G7dTCTDDD5qDtTgaem02-107" edge="1">
          <mxGeometry relative="1" as="geometry" />
        </mxCell>
        <mxCell id="G7dTCTDDD5qDtTgaem02-104" value="&lt;font style=&quot;font-weight: bold;&quot; color=&quot;#0000ff&quot;&gt;Function&lt;/font&gt;&lt;b&gt;&amp;nbsp;&lt;br&gt;&lt;/b&gt;&lt;span style=&quot;font-size: 12px;&quot;&gt;&lt;b&gt;step(action)&lt;/b&gt;&lt;/span&gt;" style="rounded=1;whiteSpace=wrap;html=1;fillColor=#e1d5e7;strokeColor=#9673a6;" parent="1" vertex="1">
          <mxGeometry x="750" y="1365" width="120" height="30" as="geometry" />
        </mxCell>
        <mxCell id="G7dTCTDDD5qDtTgaem02-107" value="&lt;div&gt;&lt;span style=&quot;font-size: 12px;&quot;&gt;&lt;u&gt;&lt;b&gt;input&lt;/b&gt;&lt;/u&gt;: a dictionary of actions keyed by the agent name.&lt;/span&gt;&lt;/div&gt;&lt;div&gt;&lt;span style=&quot;font-size: 12px;&quot;&gt;&lt;b&gt;&lt;u&gt;output&lt;/u&gt;&lt;/b&gt;: the observation dictionary, reward dictionary, done dictionary, and info dictionary,&amp;nbsp;&lt;/span&gt;&lt;span style=&quot;background-color: initial;&quot;&gt;where each dictionary is keyed by the agent.&lt;/span&gt;&lt;/div&gt;" style="rounded=1;whiteSpace=wrap;html=1;align=left;" parent="1" vertex="1">
          <mxGeometry x="920" y="1255" width="220" height="110" as="geometry" />
        </mxCell>
        <mxCell id="G7dTCTDDD5qDtTgaem02-116" style="edgeStyle=orthogonalEdgeStyle;rounded=0;orthogonalLoop=1;jettySize=auto;html=1;fontColor=#000000;" parent="1" source="G7dTCTDDD5qDtTgaem02-110" target="G7dTCTDDD5qDtTgaem02-115" edge="1">
          <mxGeometry relative="1" as="geometry" />
        </mxCell>
        <mxCell id="G7dTCTDDD5qDtTgaem02-110" value="&lt;font style=&quot;font-weight: bold;&quot; color=&quot;#0000ff&quot;&gt;Function&lt;/font&gt;&lt;b&gt;&amp;nbsp;&lt;br&gt;&lt;/b&gt;&lt;span style=&quot;font-size: 12px;&quot;&gt;&lt;b&gt;reset(self)&lt;/b&gt;&lt;/span&gt;" style="rounded=1;whiteSpace=wrap;html=1;fillColor=#e1d5e7;strokeColor=#9673a6;" parent="1" vertex="1">
          <mxGeometry x="750" y="1410" width="120" height="30" as="geometry" />
        </mxCell>
        <mxCell id="G7dTCTDDD5qDtTgaem02-111" value="&lt;font style=&quot;font-weight: bold;&quot; color=&quot;#0000ff&quot;&gt;Function&lt;/font&gt;&lt;b&gt;&amp;nbsp;&lt;br&gt;&lt;/b&gt;&lt;span style=&quot;font-size: 12px;&quot;&gt;&lt;b&gt;reset(self)&lt;/b&gt;&lt;/span&gt;" style="rounded=1;whiteSpace=wrap;html=1;fillColor=#e1d5e7;strokeColor=#9673a6;" parent="1" vertex="1">
          <mxGeometry x="750" y="1500" width="120" height="30" as="geometry" />
        </mxCell>
        <mxCell id="G7dTCTDDD5qDtTgaem02-112" value="&lt;font style=&quot;font-weight: bold;&quot; color=&quot;#0000ff&quot;&gt;Function&lt;/font&gt;&lt;b&gt;&amp;nbsp;&lt;br&gt;&lt;/b&gt;&lt;span style=&quot;font-size: 12px;&quot;&gt;&lt;b&gt;observe(agent)&lt;/b&gt;&lt;/span&gt;" style="rounded=1;whiteSpace=wrap;html=1;fillColor=#e1d5e7;strokeColor=#9673a6;" parent="1" vertex="1">
          <mxGeometry x="750" y="1455" width="120" height="30" as="geometry" />
        </mxCell>
        <mxCell id="G7dTCTDDD5qDtTgaem02-115" value="&lt;span style=&quot;font-size: 12px;&quot;&gt;Resets the environment to a starting state&lt;/span&gt;" style="rounded=1;whiteSpace=wrap;html=1;fontColor=#000000;" parent="1" vertex="1">
          <mxGeometry x="930" y="1380" width="120" height="60" as="geometry" />
        </mxCell>
      </root>
    </mxGraphModel>
  </diagram>
</mxfile>
